/* XPM */
static char *xaralx[] = {
/* columns rows colors chars-per-pixel */
"32 32 257 2",
"   c black",
".  c #1F1E22",
"X  c #1F2226",
"o  c #2A1C1B",
"O  c #2E2C30",
"+  c #3E243C",
"@  c #333334",
"#  c #0C275E",
"$  c #0C2357",
"%  c #132556",
"&  c #12295D",
"*  c #0D2C66",
"=  c #0C2C69",
"-  c #022666",
";  c #022D73",
":  c #0F316E",
">  c #033077",
",  c #06337C",
"<  c #112C63",
"1  c #193F64",
"2  c #113672",
"3  c #313B47",
"4  c #2F4A7E",
"5  c #27447C",
"6  c #510809",
"7  c #561820",
"8  c #41202C",
"9  c #4A2D3D",
"0  c #7D1B06",
"q  c #523648",
"w  c #4F4E54",
"e  c #4F535B",
"r  c #524442",
"t  c #5D5C5D",
"y  c #5A4867",
"u  c #505E68",
"i  c #586077",
"p  c #604562",
"a  c #7D7A7A",
"s  c #686869",
"d  c #003C8F",
"f  c #083D87",
"g  c #083D88",
"h  c #003D90",
"j  c #0D4088",
"k  c #004DAC",
"l  c #004CA5",
"z  c #0A52A9",
"x  c #0056BB",
"c  c #0058BF",
"v  c #0D5EBA",
"b  c #0962BA",
"n  c #1061BC",
"m  c #176DBB",
"M  c #1F73BE",
"N  c #2F5A9B",
"B  c #355F9E",
"V  c #3B5A99",
"C  c #375695",
"Z  c #276099",
"A  c #2A66A2",
"S  c #276DB1",
"D  c #2777BF",
"F  c #3B73AB",
"G  c #3076B8",
"H  c #0E66C6",
"J  c #076EC4",
"K  c #0874CB",
"L  c #0674CD",
"P  c #087DD6",
"I  c #1066C5",
"U  c #1369C7",
"Y  c #1677C8",
"T  c #247AC5",
"R  c #2A7CC4",
"E  c #2076C6",
"W  c #337DC0",
"Q  c #425F9C",
"!  c #46639E",
"~  c #4B669F",
"^  c #4E7B99",
"/  c #597493",
"(  c #4D69A2",
")  c #4668A6",
"_  c #4674A9",
"`  c #4B7CB2",
"'  c #516CA2",
"]  c #5C75AB",
"[  c #5E78AC",
"{  c #5674A7",
"}  c #676B8C",
"|  c #617AAD",
" . c #697EAD",
".. c #647DB1",
"X. c #687FB1",
"o. c #0F80D6",
"O. c #1F83D2",
"+. c #1481D6",
"@. c #0083E6",
"#. c #008AEC",
"$. c #0B89E4",
"%. c #0095FA",
"&. c #0099FE",
"*. c #168FE7",
"=. c #1F97ED",
"-. c #1D9FF7",
";. c #1398F3",
":. c #10A0FE",
">. c #1BA3FD",
",. c #2F86CF",
"<. c #2180CD",
"1. c #3E82C2",
"2. c #3194DF",
"3. c #2386D5",
"4. c #2793E4",
"5. c #349CE8",
"6. c #24A6FD",
"7. c #27A8FE",
"8. c #2BA9FE",
"9. c #33ACFE",
"0. c #3FA6F0",
"q. c #39AFFE",
"w. c #34A5F4",
"e. c #3CB1FE",
"r. c #4E82B8",
"t. c #5984A8",
"y. c #5785B7",
"u. c #768690",
"i. c #6780B2",
"p. c #6B83B4",
"a. c #6E86B8",
"s. c #7B88AD",
"d. c #7387B6",
"f. c #7289B5",
"g. c #748BBB",
"h. c #7F8FB6",
"j. c #798FBC",
"k. c #7287B8",
"l. c #7D92BE",
"z. c #4385C2",
"x. c #4991C4",
"c. c #4A9ED8",
"v. c #538DC5",
"b. c #5992C8",
"n. c #439EE2",
"m. c #53A4DA",
"M. c #40AFF9",
"N. c #45B4FE",
"B. c #4AB6FD",
"V. c #4EB9FF",
"C. c #53B9FD",
"Z. c #58B7F7",
"A. c #53B3F4",
"S. c #6B9ACA",
"D. c #6C94C9",
"F. c #7798C6",
"G. c #78A2CB",
"H. c #7BA6D1",
"J. c #76AAE1",
"K. c #7EAEE1",
"L. c #9E2812",
"P. c #9C3920",
"I. c #A1260A",
"U. c #A22E17",
"Y. c #A1513B",
"T. c #C62D06",
"R. c #DD3E13",
"E. c #C94320",
"W. c #CE4E35",
"Q. c #F45022",
"!. c #D35941",
"~. c #CF694C",
"^. c #FB764E",
"/. c #F97852",
"(. c #957A83",
"). c #987980",
"_. c #FE8661",
"`. c #828288",
"'. c #9B9B9C",
"]. c #8192BF",
"[. c #8C99B6",
"{. c #9C9DA3",
"}. c #969FBE",
"|. c #AE8A81",
" X c #AC919D",
".X c #AAAAB4",
"XX c #AEAEBB",
"oX c #A2A4B3",
"OX c #B7B7BC",
"+X c #A7A8A9",
"@X c #8195C2",
"#X c #8C9DC4",
"$X c #8398C4",
"%X c #929FC8",
"&X c #8BA3C6",
"*X c #88A0C8",
"=X c #84AAD2",
"-X c #8AAED5",
";X c #93A5C9",
":X c #9EAACC",
">X c #9DA6C7",
",X c #99ABD0",
"<X c #92B4D7",
"1X c #9AB8D8",
"2X c #97B8D9",
"3X c #80AFE1",
"4X c #80B0E3",
"5X c #A4A9C3",
"6X c #ADAFC1",
"7X c #A6ACC8",
"8X c #A4B3D2",
"9X c #AAB4D5",
"0X c #ADBBD6",
"qX c #A3BDD4",
"wX c #B1BCDA",
"eX c #BBBCD6",
"rX c #B9BEDA",
"tX c #B5B7D3",
"yX c #B5B5C7",
"uX c #A7C3DF",
"iX c #A9C3DF",
"pX c #B3C3DD",
"aX c #BAC2DB",
"sX c #B9C8DA",
"dX c #BFD2DE",
"fX c #AEC5E0",
"gX c #B6CAE2",
"hX c #BDCDE4",
"jX c #BFD3E7",
"kX c #D29180",
"lX c #C1C0BF",
"zX c #C4C5DD",
"xX c #C4C6DA",
"cX c #C5C9E1",
"vX c #CDCEE2",
"bX c #C6C6E0",
"nX c #CAD1E6",
"mX c #CAD6E8",
"MX c #C9D6E8",
"NX c #D3DCEB",
"BX c #D9DEED",
"VX c #DDE2EF",
"CX c #D6E2EF",
"ZX c #D4E4F5",
"AX c #DCE6F2",
"SX c #FDD5C8",
"DX c #E0E4EF",
"FX c #E4E5F2",
"GX c #E6EAF3",
"HX c #EBECF5",
"JX c #EDF1F7",
"KX c #EEF2F8",
"LX c #F4F6FA",
"PX c #F6F8FB",
"IX c #F9FAFC",
"UX c #F3F2F7",
"YX c None",
/* pixels */
"YXYXYXYXYXYXYXYXYXYXYX] ] ..[ YXYXYXYXYXYXYXYXYXYXYX& g I K.ZXK.",
"YXYXYXYXYXYXYX~ C  .f.$XwXcX;X .YXYXYXYXYXYXYXYXYX% f v H.ZXK.U ",
"YXYXYXYX] | ] l.;XiXDXUXKXNXhXF.~ YXYXYXYXYXYXYX& f n J.ZXK.U c ",
"( V ] p.j.,XsXNXPXUXhXH.v.G S.cXk.C YXYXYXYXYX% f v J.ZX3XI x x ",
"a.#X,XmXGXUXIXPXPXfXY o.*.+.S.HX8Xa.V YXYXYX& g n J.ZX4XH x k h ",
"nXJXIXPXIXIXPXPXPXG.o.>.7.O.=XUXBX#X' YXYX% g n J.ZXK.H x k h > ",
"IXIXPXPXPXPXPXPXLXb.$.6.8.T 1XHXFXnX@X[ $ g n J.ZXK.H x k h > = ",
"PXPXIXIXIXIXPXPXAXz.;.7.9.T pXHXGXFXwX] g n J.ZX3XH x k h > = < ",
"IXPXGXjXuXNXPXIXMXT >.7.w.T nXGXFXGXwXN I J.ZXH.H x k h > = < YX",
"iXG.z.Y K G <XGXfXK 6.9.w.R BXHXFXrXB v J.ZXK.I x k h > = < YXYX",
"S b @.%.%.#.L r.v.+.7.e.5.z.AXHXaXB I J.ZX4XH x k h ; = < YXYXYX",
"jXb.Y @.&.&.%.$.L 4.9.e.5.v.FXaXB v J.ZXH.I x k h > = < YXYXYXYX",
"IXJXiXz.L #.&.:.>.6.9.N.2.S.mX) v J.ZXJ.H x k d ; * < YXYXYXYXYX",
"PXPXIXAX-XT P ;.6.8.e.B.5.r. Xp D.ZXK.H x k d ; - # YXYXYXYXYXYX",
"PXPXPXPXPXNXS.Y 4.9.N.V.A.} W.~.(.D.H x l d ; 5 Q X.YXYXYXYXYXYX",
"PXPXLXPXPXPXUX=XY e.N.C.s.W._.SXkXp z k h ; 4 >X9Xa.( YXYXYXYXYX",
"PXPXPXPXPXPXPX=X3.e.V.Z.i Y.SXSX^.E.q f > 4 >XnXzX;X| YXYXYXYXYX",
"PXPXPXPXPXPXLXb.4.N.C.m.u a |./.Q.R.I.9 2 { sXxXbXrX@X..YXYXYXYX",
"JXPXPXPXPXPXCX1.w.B.C.^ +XlXr P.R.T.U.(.&Xr.` #XaXbXwXg.' YXYXYX",
"iXPXPXPXPXPXsX<.e.C.m.u.lXs @ o 0 L.).wXnXqXF Z 9XzXzX:XX.{ YXYX",
"&XKXPXPXPXPX<XO.B.C.t.'.s @ . X q y t.G.t._ y.;XeXzX9X;X..| YXYX",
"p.nXIXPXPXKXS.2.V.x.w t O O w `.{.[.{ _ f.:XeXtX>X@Xp.[ | YXYXYX",
"] 8XPXPXIXGX1.0.c.9 6 X 3 `.'..X.XXX6X6XyX5X#Xd...{ ' YXYXYXYXYX",
"{ j.GXPXIXmX<.N.r.7 8 1 / .X.X.XXXXX5X}.h. .] [ YXYXYXYXYXYXYXYX",
"YXi.sXPXIX2X,.N.n.A N ` 8XxXzXxX7X[. ...{ ] ..YXYXYXYXYXYXYXYXYX",
"YXV ;XUXIXS.m R z.G.iXBXFXBXwX#Xd.] [ YXYXYXYXYXYXYXYXYXYXYXYXYX",
"YX' a.NXIX1XS.sXVXHXGXnX9X]. .] ( YXYXYXYXYXYXYXYXYXYXYXYXYXYXYX",
"YXYX] 0XLXLXLXUXFXhX>Xk.[ ] YXYXYXYXYXYXYXYXYXYXYXYXYXYXYXYXYXYX",
"YXYXQ j.FXHXmXwXF.d.( ' [ YXYXYXYXYXYXYXYXYXYXYXYXYXYXYXYXYXYXYX",
"YXYXYXi.,X;Xg.] ] YXYXYXYXYXYXYXYXYXYXYXYXYXYXYXYXYXYXYXYXYXYXYX",
"YXYXYX[ ..] Q YXYXYXYXYXYXYXYXYXYXYXYXYXYXYXYXYXYXYXYXYXYXYXYXYX",
"YXYXYXYXYXYXYXYXYXYXYXYXYXYXYXYXYXYXYXYXYXYXYXYXYXYXYXYXYXYXYXYX"
};
